#!OML:ASF F:\VICON\USERDATA\INSTALL\rory3\rory3.ASF
:FULLY-SPECIFIED
:DEGREES
376
root 2.68575 17.1708 7.55682 27.6882 35.9098 4.93374
lowerback 37.676 3.55552 5.29988
upperback 11.0292 6.85561 2.03419
thorax -5.91139 3.42831 -3.10439
lowerneck -19.0277 -12.233 -13.9351
upperneck 17.3929 -15.0061 10.2107
head 10.5648 -6.77452 3.45572
rclavicle -8.90555e-014 8.5875e-014
rhumerus 21.3288 12.1586 -66.3298
rradius 31.6311
rwrist 23.3784
rhand -46.738 4.75487
rfingers 7.12502
rthumb -19.4554 -24.2918
lclavicle -8.90555e-014 8.5875e-014
lhumerus -26.57 -45.1247 100.602
lradius 77.6021
lwrist -11.9572
lhand -48.7651 30.1539
lfingers 7.12502
lthumb -21.4034 58.9917
rfemur -59.2679 -19.1061 22.8886
rtibia 50.1156
rfoot -12.6619 -0.633091
rtoes 2.56258
lfemur -56.3013 -0.642011 -23.8577
ltibia 37.5085
lfoot -2.47434 -13.6049
ltoes 2.00858
377
root 2.69262 17.1913 7.5662 27.0432 35.8463 4.85664
lowerback 37.1068 3.63022 5.01197
upperback 10.846 6.81426 1.99094
thorax -5.95062 3.40204 -2.97288
lowerneck -19.2472 -12.2626 -14.0369
upperneck 17.5859 -15.0389 10.3286
head 10.6984 -6.77246 3.49611
rclavicle -9.54166e-015 5.56597e-014
rhumerus 20.251 12.908 -66.7526
rradius 32.0707
rwrist 22.937
rhand -46.5852 5.11173
rfingers 7.12502
rthumb -19.3085 -23.9497
lclavicle -9.54166e-015 5.56597e-014
lhumerus -26.506 -44.946 100.727
lradius 76.5999
lwrist -12.0136
lhand -47.471 28.3908
lfingers 7.12502
lthumb -20.16 57.3647
rfemur -58.1742 -18.6276 22.3986
rtibia 49.7235
rfoot -12.5522 -1.1489
rtoes 2.54523
lfemur -55.4399 -0.600038 -23.7617
ltibia 37.2846
lfoot -2.62749 -13.4932
ltoes 0.799172
378
root 2.70164 17.2244 7.59298 25.9418 35.8694 4.46463
lowerback 36.7327 3.6145 4.8768
upperback 10.687 6.74036 2.047
thorax -6.02396 3.35908 -2.81149
lowerneck -19.2594 -12.2083 -14.2161
upperneck 17.6538 -14.9401 10.4097
head 10.7351 -6.72947 3.57039
rclavicle 2.54444e-014 -3.65764e-014
rhumerus 19.1339 13.5561 -67.4493
rradius 32.4621
rwrist 23.2374
rhand -46.2462 5.15519
rfingers 7.12502
rthumb -18.9824 -23.9385
lclavicle 2.54444e-014 -3.65764e-014
lhumerus -26.5903 -44.662 100.814
lradius 75.745
lwrist -11.9731
lhand -46.647 27.9314
lfingers 7.12502
lthumb -19.3679 56.9868
rfemur -56.6739 -18.2288 22.2373
rtibia 49.2896
rfoot -12.5749 -1.56995
rtoes 1.93093
lfemur -54.2198 -0.321021 -23.4525
ltibia 37.0676
lfoot -2.78051 -13.5453
ltoes 0.236358
379
root 2.72318 17.2629 7.62654 24.7743 35.5724 3.84405
lowerback 36.0882 3.83182 4.77844
upperback 10.6055 6.93059 2.00165
thorax -5.88303 3.45259 -2.84483
lowerneck -19.2837 -12.1772 -13.942
upperneck 17.6056 -14.9672 10.3729
head 10.6988 -6.72864 3.51064
rclavicle 5.40694e-014 -2.70347e-014
rhumerus 17.9096 14.04 -68.0803
rradius 33.0004
rwrist 23.2239
rhand -45.8783 4.71223
rfingers 7.12502
rthumb -18.6286 -24.4158
lclavicle 5.40694e-014 -2.70347e-014
lhumerus -26.6931 -44.7567 100.811
lradius 74.8926
lwrist -11.8931
lhand -46.1834 28.3747
lfingers 7.12502
lthumb -18.9221 57.4743
rfemur -55.2251 -17.5996 22.2018
rtibia 48.7991
rfoot -12.6087 -1.82795
rtoes 1.60393
lfemur -52.9918 -0.0472541 -22.8716
ltibia 36.8498
lfoot -3.10692 -13.1889
ltoes 0.167964
380
root 2.7417 17.2912 7.64838 23.8756 35.4808 3.5321
lowerback 35.5136 3.92674 4.74469
upperback 10.3709 7.00507 1.95098
thorax -5.93019 3.48192 -2.88888
lowerneck -18.9342 -12.1408 -13.7338
upperneck 17.4309 -14.9783 10.2348
head 10.5433 -6.75116 3.44434
rclavicle -1.36764e-013 8.74653e-014
rhumerus 16.4674 14.5704 -68.6882
rradius 33.5753
rwrist 23.0063
rhand -45.8604 4.54565
rfingers 7.12502
rthumb -18.6114 -24.584
lclavicle -1.36764e-013 8.74653e-014
lhumerus -27.0767 -44.7334 101.094
lradius 74.119
lwrist -11.9368
lhand -45.4407 28.4997
lfingers 7.12502
lthumb -18.2077 57.6676
rfemur -53.9379 -17.2064 21.9981
rtibia 48.3212
rfoot -12.5987 -2.09002
rtoes 1.77876
lfemur -51.9172 -0.0433971 -22.5072
ltibia 36.604
lfoot -3.41557 -12.9659
ltoes -1.04028
381
root 2.75905 17.3145 7.66394 23.152 35.4991 3.44696
lowerback 34.891 3.87361 4.61893
upperback 10.3022 6.86707 1.93756
thorax -5.93007 3.41653 -2.80059
lowerneck -19.1508 -12.1414 -13.7861
upperneck 17.4454 -14.931 10.181
head 10.5803 -6.73181 3.43249
rclavicle 1.27222e-014 2.06736e-014
rhumerus 15.42 15.4351 -69.1126
rradius 34.0989
rwrist 22.6022
rhand -45.8611 4.60408
rfingers 7.12502
rthumb -18.6121 -24.5255
lclavicle 1.27222e-014 2.06736e-014
lhumerus -27.0864 -44.3028 101.207
lradius 73.3262
lwrist -12.0767
lhand -44.5761 28.2524
lfingers 7.12502
lthumb -17.3757 57.4957
rfemur -52.7402 -16.8851 21.6096
rtibia 47.8797
rfoot -12.5861 -2.48135
rtoes 2.83568
lfemur -50.8999 -0.211599 -22.3121
ltibia 36.3365
lfoot -3.52779 -12.717
ltoes -1.76137
382
root 2.7687 17.3397 7.68758 22.3819 35.3965 3.36897
lowerback 34.3198 3.91846 4.27371
upperback 10.1869 6.78216 1.89494
thorax -5.88783 3.37534 -2.61505
lowerneck -19.2606 -12.1026 -13.9819
upperneck 17.4265 -14.8926 10.5162
head 10.636 -6.68814 3.58334
rclavicle 2.54444e-014 -7.4743e-014
rhumerus 14.3658 16.2121 -69.67
rradius 34.6561
rwrist 22.3869
rhand -45.7687 4.80336
rfingers 7.12502
rthumb -18.5233 -24.3347
lclavicle 2.54444e-014 -7.4743e-014
lhumerus -27.0223 -43.8769 101.201
lradius 72.4603
lwrist -12.1107
lhand -43.9146 27.3689
lfingers 7.12502
lthumb -16.739 56.6673
rfemur -51.489 -16.3273 21.1553
rtibia 47.4829
rfoot -12.5499 -2.98621
rtoes 3.15533
lfemur -49.7866 -0.306657 -22.0996
ltibia 36.0191
lfoot -3.63539 -12.419
ltoes -1.81048
383
root 2.78279 17.3637 7.71669 21.5202 35.3884 3.25318
lowerback 33.7938 3.89211 3.96283
upperback 10.0622 6.6329 1.90721
thorax -5.87433 3.30183 -2.37137
lowerneck -19.3574 -12.0482 -14.0765
upperneck 17.4264 -14.8012 10.5922
head 10.6561 -6.64185 3.63829
rclavicle 4.29375e-014 -1.06549e-013
rhumerus 13.2872 17.0968 -70.2223
rradius 35.269
rwrist 22.2283
rhand -45.7023 4.5825
rfingers 7.12502
rthumb -18.4594 -24.5617
lclavicle 4.29375e-014 -1.06549e-013
lhumerus -27.005 -43.2502 101.223
lradius 71.6921
lwrist -12.1166
lhand -43.4987 26.6328
lfingers 7.12502
lthumb -16.3385 55.9646
rfemur -50.1339 -15.9066 20.7968
rtibia 47.1115
rfoot -12.5856 -3.41101
rtoes 3.26525
lfemur -48.6042 -0.319994 -21.927
ltibia 35.7486
lfoot -3.76442 -12.2614
ltoes -1.82448
384
root 2.80723 17.3927 7.74425 20.5078 35.7348 3.2531
lowerback 33.606 3.59279 3.97173
upperback 9.90628 6.271 1.91601
thorax -5.99321 3.12709 -2.24629
lowerneck -19.4672 -11.9736 -14.1673
upperneck 17.3966 -14.6495 10.5507
head 10.6481 -6.58068 3.66214
rclavicle -3.18055e-015 1.06549e-013
rhumerus 12.1727 17.9729 -70.7982
rradius 35.9713
rwrist 22.0167
rhand -45.317 4.21042
rfingers 7.12502
rthumb -18.0887 -24.9685
lclavicle -3.18055e-015 1.06549e-013
lhumerus -27.1529 -42.7374 101.223
lradius 71.1299
lwrist -12.1885
lhand -42.6554 27.0746
lfingers 7.12502
lthumb -15.5264 56.4712
rfemur -48.464 -15.9547 20.4147
rtibia 46.7051
rfoot -12.6967 -3.66373
rtoes 3.28404
lfemur -47.1592 -0.674162 -21.7651
ltibia 35.4618
lfoot -3.8933 -12.1905
ltoes -1.93311
385
root 2.83171 17.4053 7.76391 19.8868 35.4989 3.03068
lowerback 32.4894 3.61904 3.79942
upperback 10.0793 6.17878 1.90915
thorax -5.99933 3.08221 -2.27214
lowerneck -19.4793 -11.9115 -14.1533
upperneck 17.2371 -14.5594 10.555
head 10.5793 -6.5415 3.67866
rclavicle -3.02153e-014 1.03368e-013
rhumerus 11.0128 18.8509 -71.3904
rradius 36.76
rwrist 21.5911
rhand -44.7292 3.86281
rfingers 7.12502
rthumb -17.5231 -25.3675
lclavicle -3.02153e-014 1.03368e-013
lhumerus -27.1845 -42.5088 101.067
lradius 70.4488
lwrist -11.9035
lhand -41.3968 27.1719
lfingers 7.12502
lthumb -14.314 56.6585
rfemur -47.5697 -15.4767 20.2361
rtibia 46.3216
rfoot -12.6199 -3.89669
rtoes 2.7842
lfemur -46.3622 -0.697888 -21.5308
ltibia 35.2613
lfoot -3.91726 -11.8452
ltoes -1.76848
